<mxfile host="Electron" agent="Mozilla/5.0 (X11; Linux x86_64) AppleWebKit/537.36 (KHTML, like Gecko) draw.io/28.1.2 Chrome/138.0.7204.243 Electron/37.4.0 Safari/537.36" version="28.1.2">
  <diagram name="第 1 页" id="FGGuAt8Rrx4PTVafgH-0">
    <mxGraphModel dx="544" dy="337" grid="1" gridSize="10" guides="1" tooltips="1" connect="1" arrows="1" fold="1" page="1" pageScale="1" pageWidth="827" pageHeight="1169" math="0" shadow="0">
      <root>
        <mxCell id="0" />
        <mxCell id="1" parent="0" />
        <mxCell id="PxmSNstuETSj8fjZK2mL-1" value="&lt;font face=&quot;Times New Roman&quot;&gt;&lt;u&gt;CName&lt;/u&gt;&lt;/font&gt;" style="rounded=0;whiteSpace=wrap;html=1;" vertex="1" parent="1">
          <mxGeometry x="120" y="180" width="50" height="20" as="geometry" />
        </mxCell>
        <mxCell id="PxmSNstuETSj8fjZK2mL-2" value="&lt;font face=&quot;Times New Roman&quot;&gt;COffice&lt;/font&gt;" style="rounded=0;whiteSpace=wrap;html=1;" vertex="1" parent="1">
          <mxGeometry x="170" y="180" width="50" height="20" as="geometry" />
        </mxCell>
        <mxCell id="PxmSNstuETSj8fjZK2mL-6" value="&lt;font face=&quot;Times New Roman&quot;&gt;CPhone&lt;/font&gt;" style="rounded=0;whiteSpace=wrap;html=1;" vertex="1" parent="1">
          <mxGeometry x="220" y="180" width="50" height="20" as="geometry" />
        </mxCell>
        <mxCell id="PxmSNstuETSj8fjZK2mL-8" value="&lt;font face=&quot;Times New Roman&quot;&gt;COLLEGE&lt;/font&gt;" style="text;html=1;align=center;verticalAlign=middle;whiteSpace=wrap;rounded=0;" vertex="1" parent="1">
          <mxGeometry x="120" y="160" width="60" height="20" as="geometry" />
        </mxCell>
        <mxCell id="PxmSNstuETSj8fjZK2mL-9" value="&lt;font face=&quot;Times New Roman&quot;&gt;&lt;u&gt;Id&lt;/u&gt;&lt;/font&gt;" style="rounded=0;whiteSpace=wrap;html=1;" vertex="1" parent="1">
          <mxGeometry x="120" y="240" width="50" height="20" as="geometry" />
        </mxCell>
        <mxCell id="PxmSNstuETSj8fjZK2mL-10" value="&lt;font face=&quot;Times New Roman&quot;&gt;Rank&lt;/font&gt;" style="rounded=0;whiteSpace=wrap;html=1;" vertex="1" parent="1">
          <mxGeometry x="170" y="240" width="50" height="20" as="geometry" />
        </mxCell>
        <mxCell id="PxmSNstuETSj8fjZK2mL-11" value="&lt;font face=&quot;Times New Roman&quot;&gt;IName&lt;/font&gt;" style="rounded=0;whiteSpace=wrap;html=1;" vertex="1" parent="1">
          <mxGeometry x="220" y="240" width="50" height="20" as="geometry" />
        </mxCell>
        <mxCell id="PxmSNstuETSj8fjZK2mL-12" value="&lt;font face=&quot;Times New Roman&quot;&gt;INSTRUCTOR&lt;/font&gt;" style="text;html=1;align=center;verticalAlign=middle;whiteSpace=wrap;rounded=0;" vertex="1" parent="1">
          <mxGeometry x="120" y="220" width="80" height="20" as="geometry" />
        </mxCell>
        <mxCell id="PxmSNstuETSj8fjZK2mL-13" value="&lt;font face=&quot;Times New Roman&quot;&gt;IOffice&lt;/font&gt;" style="rounded=0;whiteSpace=wrap;html=1;" vertex="1" parent="1">
          <mxGeometry x="270" y="240" width="50" height="20" as="geometry" />
        </mxCell>
        <mxCell id="PxmSNstuETSj8fjZK2mL-15" value="&lt;font face=&quot;Times New Roman&quot;&gt;IPhone&lt;/font&gt;" style="rounded=0;whiteSpace=wrap;html=1;" vertex="1" parent="1">
          <mxGeometry x="320" y="240" width="50" height="20" as="geometry" />
        </mxCell>
        <mxCell id="PxmSNstuETSj8fjZK2mL-17" value="&lt;font face=&quot;Times New Roman&quot;&gt;&lt;u&gt;DName&lt;/u&gt;&lt;/font&gt;" style="rounded=0;whiteSpace=wrap;html=1;" vertex="1" parent="1">
          <mxGeometry x="120" y="300" width="50" height="20" as="geometry" />
        </mxCell>
        <mxCell id="PxmSNstuETSj8fjZK2mL-18" value="&lt;font face=&quot;Times New Roman&quot;&gt;DCode&lt;/font&gt;" style="rounded=0;whiteSpace=wrap;html=1;" vertex="1" parent="1">
          <mxGeometry x="170" y="300" width="50" height="20" as="geometry" />
        </mxCell>
        <mxCell id="PxmSNstuETSj8fjZK2mL-19" value="&lt;font face=&quot;Times New Roman&quot;&gt;DOffice&lt;/font&gt;" style="rounded=0;whiteSpace=wrap;html=1;" vertex="1" parent="1">
          <mxGeometry x="220" y="300" width="50" height="20" as="geometry" />
        </mxCell>
        <mxCell id="PxmSNstuETSj8fjZK2mL-20" value="&lt;font face=&quot;Times New Roman&quot;&gt;DEPT&lt;/font&gt;" style="text;html=1;align=center;verticalAlign=middle;whiteSpace=wrap;rounded=0;" vertex="1" parent="1">
          <mxGeometry x="120" y="280" width="40" height="20" as="geometry" />
        </mxCell>
        <mxCell id="PxmSNstuETSj8fjZK2mL-21" value="&lt;font face=&quot;Times New Roman&quot;&gt;DPhone&lt;/font&gt;" style="rounded=0;whiteSpace=wrap;html=1;" vertex="1" parent="1">
          <mxGeometry x="270" y="300" width="50" height="20" as="geometry" />
        </mxCell>
      </root>
    </mxGraphModel>
  </diagram>
</mxfile>
